<?xml version="1.0" encoding="UTF-8"?>
<svg version="1.1" xmlns="http://www.w3.org/2000/svg" width="500" height="500">
<path d="M0 0 C1.11618713 0.00143005 2.23237427 0.00286011 3.38238525 0.0043335 C21.42745404 0.06141875 38.53773875 1.17972499 56.125 5.5 C57.09373047 5.73525391 58.06246094 5.97050781 59.06054688 6.21289062 C65.16323454 7.74172128 71.14924407 9.5372988 77.125 11.5 C78.41204834 11.91403076 78.41204834 11.91403076 79.72509766 12.33642578 C90.72086731 15.89992618 100.91280662 20.06021265 111.125 25.5 C113.18488704 26.52609566 115.24732061 27.5470981 117.3125 28.5625 C122.99562909 31.4002401 128.5716073 34.41721114 134.125 37.5 C134.125 38.16 134.125 38.82 134.125 39.5 C134.6509375 39.57476562 135.176875 39.64953125 135.71875 39.7265625 C139.10650223 40.81548286 141.76198138 42.8234946 144.625 44.875 C145.47771484 45.47441406 145.47771484 45.47441406 146.34765625 46.0859375 C147.94711006 47.21409054 149.5363642 48.35666363 151.125 49.5 C152.31609375 50.32371094 152.31609375 50.32371094 153.53125 51.1640625 C154.0571875 51.60492188 154.583125 52.04578125 155.125 52.5 C155.125 53.16 155.125 53.82 155.125 54.5 C155.785 54.685625 156.445 54.87125 157.125 55.0625 C161.39405268 57.10808774 164.86663706 60.07184643 168.125 63.5 C168.125 64.16 168.125 64.82 168.125 65.5 C168.71829102 65.76876953 169.31158203 66.03753906 169.92285156 66.31445312 C172.13040033 67.50290732 173.59042882 68.70742389 175.359375 70.46875 C175.93300781 71.03980469 176.50664062 71.61085938 177.09765625 72.19921875 C177.68417969 72.79347656 178.27070313 73.38773437 178.875 74 C179.47699219 74.59425781 180.07898438 75.18851562 180.69921875 75.80078125 C181.26769531 76.37183594 181.83617187 76.94289063 182.421875 77.53125 C182.94104492 78.05267578 183.46021484 78.57410156 183.99511719 79.11132812 C185.125 80.5 185.125 80.5 185.125 82.5 C185.99898438 82.85578125 185.99898438 82.85578125 186.890625 83.21875 C189.60052837 84.7726806 190.99030802 86.51929431 192.875 89 C193.48859375 89.7940625 194.1021875 90.588125 194.734375 91.40625 C196.125 93.5 196.125 93.5 196.125 95.5 C196.785 95.5 197.445 95.5 198.125 95.5 C198.125 96.16 198.125 96.82 198.125 97.5 C198.785 97.5 199.445 97.5 200.125 97.5 C201.63378906 99.3449707 201.63378906 99.3449707 203.390625 101.92578125 C204.35548828 103.34020508 204.35548828 103.34020508 205.33984375 104.78320312 C206.01144531 105.78287109 206.68304688 106.78253906 207.375 107.8125 C208.35919922 109.24819336 208.35919922 109.24819336 209.36328125 110.71289062 C215.47578977 119.73582816 220.62447153 129.11185063 225.1875 139 C225.50009766 139.66902344 225.81269531 140.33804688 226.13476562 141.02734375 C226.7860033 142.42492886 227.43319531 143.82440513 228.07666016 145.22558594 C228.81713385 146.83207241 229.5678078 148.43387606 230.32568359 150.03222656 C233.56771345 156.96208104 236.21258849 163.99213752 238.625 171.25 C239.01373291 172.41869629 239.40246582 173.58739258 239.80297852 174.79150391 C243.39467149 185.8672025 246.06833953 197.04558664 248.125 208.5 C248.38273445 209.93372955 248.38273445 209.93372955 248.64567566 211.39642334 C249.96251987 219.26675542 250.44552608 226.89502281 250.4609375 234.8671875 C250.4675943 236.10381134 250.4742511 237.34043518 250.48110962 238.61453247 C250.49116978 241.21794159 250.49592872 243.82137615 250.49560547 246.42480469 C250.49995053 250.33053124 250.53626753 254.23509962 250.57421875 258.140625 C250.64432454 273.68696978 249.49413151 288.31776473 246.125 303.5 C245.73973145 305.29703369 245.73973145 305.29703369 245.34667969 307.13037109 C244.72555881 309.85660019 244.0456209 312.55202075 243.3125 315.25 C243.06387207 316.18336182 242.81524414 317.11672363 242.55908203 318.07836914 C239.39222003 329.62458739 235.56699713 341.07127215 230.00341797 351.69702148 C228.95405899 353.7585153 228.95405899 353.7585153 227.875 357.125 C225.96054623 362.45812122 222.95429176 367.24302251 220.1015625 372.11328125 C218.55576797 374.76190547 217.07222987 377.42251973 215.625 380.125 C212.48373102 385.81324383 208.79129911 391.14156284 205.125 396.5 C204.61195313 397.26570313 204.09890625 398.03140625 203.5703125 398.8203125 C202.47648846 400.4189784 201.3094077 401.9672371 200.125 403.5 C199.465 403.5 198.805 403.5 198.125 403.5 C197.76728516 404.58087891 197.76728516 404.58087891 197.40234375 405.68359375 C195.93206163 408.92540845 194.12271895 410.97532979 191.6875 413.5625 C188.41605012 417.05345487 188.41605012 417.05345487 185.46484375 420.80859375 C184.80162109 421.64583984 184.80162109 421.64583984 184.125 422.5 C183.465 422.5 182.805 422.5 182.125 422.5 C182.125 423.16 182.125 423.82 182.125 424.5 C181.465 424.5 180.805 424.5 180.125 424.5 C180.125 425.16 180.125 425.82 180.125 426.5 C179.465 426.5 178.805 426.5 178.125 426.5 C178.125 427.16 178.125 427.82 178.125 428.5 C177.465 428.5 176.805 428.5 176.125 428.5 C176.125 429.16 176.125 429.82 176.125 430.5 C175.465 430.5 174.805 430.5 174.125 430.5 C174.125 431.16 174.125 431.82 174.125 432.5 C173.465 432.5 172.805 432.5 172.125 432.5 C172.125 433.16 172.125 433.82 172.125 434.5 C167.12170079 439.66689482 161.06004287 444.44890227 155.125 448.5 C154.465 448.5 153.805 448.5 153.125 448.5 C153.125 449.16 153.125 449.82 153.125 450.5 C152.465 450.5 151.805 450.5 151.125 450.5 C151.125 451.16 151.125 451.82 151.125 452.5 C148.7890625 454.2265625 148.7890625 454.2265625 145.75 456.125 C144.25339844 457.07246094 144.25339844 457.07246094 142.7265625 458.0390625 C140.125 459.5 140.125 459.5 138.125 459.5 C138.125 460.16 138.125 460.82 138.125 461.5 C137.61453125 461.77972656 137.1040625 462.05945313 136.578125 462.34765625 C132.15361833 464.78741081 127.78041244 467.29257019 123.4375 469.875 C91.69866876 488.43311916 53.40365089 500.50166562 16.5 500.73828125 C15.28086914 500.746353 14.06173828 500.75442474 12.80566406 500.76274109 C10.22364706 500.77653893 7.64161214 500.7872802 5.05957031 500.79516602 C2.4651134 500.80659605 -0.12932172 500.82690194 -2.72363281 500.85668945 C-24.36886337 501.10460961 -45.00925961 499.35781398 -65.8125 493.125 C-67.35877075 492.67664795 -67.35877075 492.67664795 -68.9362793 492.21923828 C-81.88860805 488.40729639 -94.49103656 483.89263148 -106.875 478.5 C-106.875 477.84 -106.875 477.18 -106.875 476.5 C-107.56207031 476.40460938 -108.24914062 476.30921875 -108.95703125 476.2109375 C-112.47048916 475.35491429 -115.41552002 473.84871637 -118.5625 472.125 C-119.52458374 471.60413818 -119.52458374 471.60413818 -120.50610352 471.07275391 C-125.85371383 468.13889329 -131.09786232 465.03818153 -136.3125 461.875 C-137.0449292 461.43236816 -137.7773584 460.98973633 -138.53198242 460.53369141 C-148.7588878 454.24645967 -148.7588878 454.24645967 -152.875 450.5 C-152.875 449.84 -152.875 449.18 -152.875 448.5 C-153.535 448.5 -154.195 448.5 -154.875 448.5 C-154.875 447.84 -154.875 447.18 -154.875 446.5 C-155.638125 446.21125 -156.40125 445.9225 -157.1875 445.625 C-159.875 444.5 -159.875 444.5 -162.875 442.5 C-162.875 441.84 -162.875 441.18 -162.875 440.5 C-163.73109863 440.13068359 -163.73109863 440.13068359 -164.60449219 439.75390625 C-167.2534281 438.29101003 -169.06048546 436.57354681 -171.203125 434.4375 C-172.00234375 433.64085937 -172.8015625 432.84421875 -173.625 432.0234375 C-174.45 431.19070313 -175.275 430.35796875 -176.125 429.5 C-176.96546875 428.66726563 -177.8059375 427.83453125 -178.671875 426.9765625 C-179.4659375 426.17992187 -180.26 425.38328125 -181.078125 424.5625 C-181.80676758 423.83160156 -182.53541016 423.10070312 -183.28613281 422.34765625 C-184.875 420.5 -184.875 420.5 -184.875 418.5 C-185.74898437 418.14421875 -185.74898437 418.14421875 -186.640625 417.78125 C-189.35052837 416.2273194 -190.74030802 414.48070569 -192.625 412 C-193.23859375 411.2059375 -193.8521875 410.411875 -194.484375 409.59375 C-195.875 407.5 -195.875 407.5 -195.875 405.5 C-196.535 405.5 -197.195 405.5 -197.875 405.5 C-197.875 404.84 -197.875 404.18 -197.875 403.5 C-198.535 403.5 -199.195 403.5 -199.875 403.5 C-201.30937687 401.53437244 -202.5877414 399.56196134 -203.875 397.5 C-204.47441406 396.58347656 -205.07382813 395.66695313 -205.69140625 394.72265625 C-210.875 386.75353535 -210.875 386.75353535 -210.875 384.5 C-211.535 384.5 -212.195 384.5 -212.875 384.5 C-226.75918965 359.67675184 -238.2735598 334.08057373 -244.6875 306.25 C-244.87006348 305.46157715 -245.05262695 304.6731543 -245.24072266 303.86083984 C-245.84318355 301.08217671 -246.36798192 298.29779297 -246.875 295.5 C-246.99994843 294.82882141 -247.12489685 294.15764282 -247.25363159 293.46612549 C-249.81487297 279.40600741 -250.39702106 265.64554747 -250.3125 251.375 C-250.30979095 250.3000528 -250.30708191 249.22510559 -250.30429077 248.11758423 C-250.24240305 231.91218521 -249.50095148 216.35244692 -245.875 200.5 C-245.68776367 199.62859375 -245.50052734 198.7571875 -245.30761719 197.859375 C-237.66949991 162.61058507 -222.00780117 122.95937778 -197.875 95.5 C-197.215 95.5 -196.555 95.5 -195.875 95.5 C-195.875 94.84 -195.875 94.18 -195.875 93.5 C-195.215 93.5 -194.555 93.5 -193.875 93.5 C-193.5965625 92.51 -193.5965625 92.51 -193.3125 91.5 C-191.26691226 87.23094732 -188.30315357 83.75836294 -184.875 80.5 C-184.215 80.5 -183.555 80.5 -182.875 80.5 C-182.875 79.84 -182.875 79.18 -182.875 78.5 C-182.215 78.5 -181.555 78.5 -180.875 78.5 C-180.648125 77.943125 -180.42125 77.38625 -180.1875 76.8125 C-178.49949964 73.83840412 -176.40823483 71.77991135 -173.875 69.5 C-173.215 69.5 -172.555 69.5 -171.875 69.5 C-171.875 68.84 -171.875 68.18 -171.875 67.5 C-171.215 67.5 -170.555 67.5 -169.875 67.5 C-169.875 66.84 -169.875 66.18 -169.875 65.5 C-168.14108049 63.89365985 -166.336909 62.3624713 -164.5 60.875 C-163.50226563 60.05773438 -162.50453125 59.24046875 -161.4765625 58.3984375 C-158.875 56.5 -158.875 56.5 -156.875 56.5 C-156.875 55.84 -156.875 55.18 -156.875 54.5 C-156.215 54.5 -155.555 54.5 -154.875 54.5 C-154.875 53.84 -154.875 53.18 -154.875 52.5 C-152.42924063 50.66342977 -149.98080402 48.94187334 -147.4375 47.25 C-146.70700439 46.75781982 -145.97650879 46.26563965 -145.22387695 45.75854492 C-143.77050174 44.78022167 -142.3153709 43.8045009 -140.85839844 42.83154297 C-139.19928754 41.71770855 -137.55480117 40.58213089 -135.9140625 39.44140625 C-135.13804687 38.90386719 -134.36203125 38.36632813 -133.5625 37.8125 C-132.90636719 37.35488281 -132.25023437 36.89726563 -131.57421875 36.42578125 C-129.875 35.5 -129.875 35.5 -126.875 35.5 C-126.875 34.84 -126.875 34.18 -126.875 33.5 C-124.22761084 32.0393715 -122.98051666 31.5 -119.875 31.5 C-119.875 30.84 -119.875 30.18 -119.875 29.5 C-95.73721593 17.65749289 -71.45785391 8.34389694 -44.875 3.5 C-44.20887695 3.37538391 -43.54275391 3.25076782 -42.85644531 3.12237549 C-28.55605504 0.50693827 -14.51602234 -0.06019438 0 0 Z M102.1875 209.25 C97.95449447 213.86782422 96.52535285 218.08488383 96.78515625 224.2578125 C97.35861086 228.04129463 98.60119963 230.63859075 101.125 233.5 C107.28759572 237.54414635 114.56134651 239.27970554 121.5859375 241.2109375 C122.400625 241.45070312 123.2153125 241.69046875 124.0546875 241.9375 C124.78929199 242.14246094 125.52389648 242.34742188 126.28076172 242.55859375 C128.70879244 243.79800154 129.23039004 244.96122601 130.125 247.5 C129.98252351 250.99067413 129.81530482 252.80969518 127.3125 255.3125 C122.01030685 258.19083342 116.67642752 257.98140142 110.8125 256.875 C108.125 255.5 108.125 255.5 106.8125 252.4375 C106.585625 251.468125 106.35875 250.49875 106.125 249.5 C105.11663938 248.26732652 105.11663938 248.26732652 103.05859375 248.40234375 C102.23488281 248.41394531 101.41117187 248.42554688 100.5625 248.4375 C99.73621094 248.44652344 98.90992188 248.45554688 98.05859375 248.46484375 C97.42050781 248.47644531 96.78242188 248.48804688 96.125 248.5 C96.24875 249.758125 96.3725 251.01625 96.5 252.3125 C96.56960938 253.02019531 96.63921875 253.72789062 96.7109375 254.45703125 C97.05165391 256.79988142 97.05165391 256.79988142 99.125 259.5 C99.785 259.5 100.445 259.5 101.125 259.5 C101.125 260.16 101.125 260.82 101.125 261.5 C109.8904602 266.17636214 117.43733321 267.92429251 127.25 265.3125 C132.38762399 263.63684418 136.32570211 261.39749005 139.2578125 256.67578125 C140.94716825 252.43717244 140.6500393 247.972557 140.125 243.5 C137.58102123 238.2235996 134.57635152 235.79425682 129.15625 233.76171875 C125.94969757 232.66087769 122.72432689 231.66872546 119.4609375 230.75 C118.58695312 230.5025 117.71296875 230.255 116.8125 230 C116.01199219 229.7834375 115.21148437 229.566875 114.38671875 229.34375 C111.83764547 228.39280038 110.11321868 227.35864937 108.125 225.5 C107.625 222 107.625 222 108.125 218.5 C111.08530262 215.54653411 113.44884828 215.04564385 117.5625 215 C121.72465808 215.10002516 122.82100756 215.26896574 126.25 217.875 C128.125 220.5 128.125 220.5 129.125 222.5 C132.095 222.5 135.065 222.5 138.125 222.5 C138.6994234 219.21758059 138.58538244 217.18486643 136.70703125 214.390625 C132.04067485 208.93825121 128.76951346 206.40214633 121.5 205.75 C114.5392357 205.28254941 108.27104075 205.62576296 102.1875 209.25 Z M151.125 211.5 C148.43136147 216.2587614 147.53183245 220.06263083 148.125 225.5 C149.77980164 229.71974418 151.67940228 232.57785703 155.125 235.5 C157.54410726 236.49411509 159.82257163 237.31791237 162.3125 238.0625 C162.97725342 238.27374512 163.64200684 238.48499023 164.3269043 238.70263672 C167.22297284 239.62118562 170.13028146 240.50159293 173.0390625 241.37890625 C178.93330479 243.21245719 178.93330479 243.21245719 181.125 246.5 C180.90277778 252.72222222 180.90277778 252.72222222 178.25 255.375 C173.983356 257.63381153 169.87507626 258.14773767 165.125 257.5 C161.47188127 255.63897725 159.58965281 254.47355828 157.8125 250.75 C156.36863473 248.27366755 156.36863473 248.27366755 153.9453125 248.18359375 C151.65173281 248.1871663 149.40782487 248.28463916 147.125 248.5 C147.56013819 253.93922743 148.52403279 257.34503784 152.125 261.5 C158.69523989 266.58141706 167.47264912 267.10627526 175.4921875 266.24609375 C181.332886 264.98477559 186.68003837 262.71560784 190 257.625 C192.17688863 251.57808714 192.2345903 247.82828495 190.40234375 241.74609375 C186.31054799 234.55104005 179.35264414 232.94966522 171.875 230.8125 C169.88902047 230.23070984 167.90455461 229.64371971 165.921875 229.05078125 C165.04885742 228.79981689 164.17583984 228.54885254 163.27636719 228.2902832 C161.125 227.5 161.125 227.5 159.125 225.5 C158.75 222.0625 158.75 222.0625 159.125 218.5 C162.07362391 215.53769338 164.4544713 215.04558146 168.5625 215 C172.72465808 215.10002516 173.82100756 215.26896574 177.25 217.875 C179.125 220.5 179.125 220.5 180.125 222.5 C183.095 222.5 186.065 222.5 189.125 222.5 C188.87397715 216.60288618 188.87397715 216.60288618 185.875 211.6875 C175.94455261 203.78828048 161.0789392 202.73105356 151.125 211.5 Z M-86.875 207.5 C-86.545 208.82 -86.215 210.14 -85.875 211.5 C-84.225 211.83 -82.575 212.16 -80.875 212.5 C-80.545 210.85 -80.215 209.2 -79.875 207.5 C-82.185 207.5 -84.495 207.5 -86.875 207.5 Z M-63.875 207.5 C-63.215 211.46 -62.555 215.42 -61.875 219.5 C-61.63965145 221.57825727 -61.43067356 223.66018095 -61.27734375 225.74609375 C-61.19806641 226.76767578 -61.11878906 227.78925781 -61.03710938 228.84179688 C-60.96298828 229.86337891 -60.88886719 230.88496094 -60.8125 231.9375 C-60.65764428 234.01973353 -60.50018748 236.10177563 -60.33984375 238.18359375 C-60.274021 239.08650146 -60.20819824 239.98940918 -60.14038086 240.91967773 C-59.8754815 243.49531829 -59.42440537 245.97114034 -58.875 248.5 C-57.885 248.005 -57.885 248.005 -56.875 247.5 C-56.40976937 245.60466658 -56.40976937 245.60466658 -56.25 243.4375 C-56.12625 242.138125 -56.0025 240.83875 -55.875 239.5 C-54.89660156 239.51160156 -53.91820312 239.52320313 -52.91015625 239.53515625 C-45.8197987 239.5839591 -38.91040778 239.48742565 -31.875 238.5 C-31.875 236.52 -31.875 234.54 -31.875 232.5 C-39.795 232.17 -47.715 231.84 -55.875 231.5 C-55.875 226.22 -55.875 220.94 -55.875 215.5 C-46.635 215.5 -37.395 215.5 -27.875 215.5 C-27.875 212.86 -27.875 210.22 -27.875 207.5 C-39.755 207.5 -51.635 207.5 -63.875 207.5 Z M-18.875 207.5 C-17.32259763 212.46768758 -14.36445219 216.67867057 -10.875 220.5 C-10.215 220.5 -9.555 220.5 -8.875 220.5 C-8.6275 221.03625 -8.38 221.5725 -8.125 222.125 C-6.57803025 225.06424252 -4.74485631 227.75754408 -2.875 230.5 C-1.885 229.84 -0.895 229.18 0.125 228.5 C0.99078525 223.17269075 -1.10439019 219.58991441 -3.8125 215.1875 C-4.37227539 214.23907227 -4.37227539 214.23907227 -4.94335938 213.27148438 C-6.67381971 210.21192869 -6.67381971 210.21192869 -8.875 207.5 C-10.56108966 207.42794489 -12.25000659 207.41613932 -13.9375 207.4375 C-14.85660156 207.44652344 -15.77570313 207.45554688 -16.72265625 207.46484375 C-17.43292969 207.47644531 -18.14320313 207.48804688 -18.875 207.5 Z M18.125 207.5 C16.25315629 211.24368742 15.88500233 212.3400791 16 216.25 C16.01804687 217.04921875 16.03609375 217.8484375 16.0546875 218.671875 C16.07789063 219.27515625 16.10109375 219.8784375 16.125 220.5 C19.86224772 219.94846785 21.3485991 218.53850239 23.75 215.6875 C24.34039062 215.00042969 24.93078125 214.31335938 25.5390625 213.60546875 C27.37697813 211.29758752 27.37697813 211.29758752 29.125 207.5 C25.495 207.5 21.865 207.5 18.125 207.5 Z M39.125 207.5 C39.16931477 213.47791025 39.23931863 219.45478057 39.33251953 225.43212891 C39.36064035 227.46296892 39.38189886 229.49391657 39.39599609 231.52490234 C39.41754898 234.45465855 39.46426222 237.38313265 39.515625 240.3125 C39.51685364 241.21178223 39.51808228 242.11106445 39.51934814 243.03759766 C39.6698568 249.60401813 41.04886379 254.99826042 45.46563721 260.02612305 C52.06735744 266.07621706 59.25133698 265.74159379 67.72265625 265.86328125 C73.41332461 265.25566683 78.10525187 262.51974813 82.125 258.5 C85.68476053 251.46910368 86.27229772 244.44556426 86.22265625 236.69921875 C86.2212413 235.86284378 86.21982635 235.02646881 86.21836853 234.16474915 C86.21279184 231.505629 86.20024365 228.8465945 86.1875 226.1875 C86.18248199 224.37955851 86.17791961 222.5716157 86.17382812 220.76367188 C86.16283004 216.34241516 86.1455815 211.92122207 86.125 207.5 C83.155 207.5 80.185 207.5 77.125 207.5 C77.14071045 208.8300708 77.14071045 208.8300708 77.15673828 210.18701172 C77.19112237 213.52313921 77.21604425 216.85907438 77.23486328 220.1953125 C77.24483031 221.63056436 77.25840887 223.06579642 77.27587891 224.50097656 C77.54201771 246.9505674 77.54201771 246.9505674 71.125 254.5 C67.6174415 256.85438858 64.5204897 256.70790979 60.375 256.625 C59.20453125 256.60695313 58.0340625 256.58890625 56.828125 256.5703125 C55.93609375 256.54710937 55.0440625 256.52390625 54.125 256.5 C54.125 255.84 54.125 255.18 54.125 254.5 C53.465 254.5 52.805 254.5 52.125 254.5 C49.7315444 248.32899408 48.66703901 242.91063091 48.61328125 236.30859375 C48.59533005 235.47787857 48.57737885 234.64716339 48.55888367 233.79127502 C48.50529082 231.1733996 48.47105121 228.55570096 48.4375 225.9375 C48.40428169 224.14776211 48.36978794 222.35804741 48.33398438 220.56835938 C48.24959479 216.21236833 48.18254309 211.85642503 48.125 207.5 C45.155 207.5 42.185 207.5 39.125 207.5 Z M-2.875 241.5 C-3.143125 242.139375 -3.41125 242.77875 -3.6875 243.4375 C-4.875 245.5 -4.875 245.5 -7.875 246.5 C-9.38602501 248.0688014 -9.38602501 248.0688014 -10.79296875 250.02734375 C-11.32470703 250.73697266 -11.85644531 251.44660156 -12.40429688 252.17773438 C-12.95150391 252.92345703 -13.49871094 253.66917969 -14.0625 254.4375 C-14.90071289 255.5502832 -14.90071289 255.5502832 -15.75585938 256.68554688 C-18.76248758 260.23874713 -18.76248758 260.23874713 -19.875 264.5 C-16.72082571 265.06775137 -14.01157531 265.23529552 -10.875 264.5 C-8.12526613 261.91525017 -6.57635792 258.838792 -4.875 255.5 C-4.38773438 254.61441406 -3.90046875 253.72882813 -3.3984375 252.81640625 C-0.53720764 247.47665164 -0.53720764 247.47665164 0.125 241.5 C-0.865 241.5 -1.855 241.5 -2.875 241.5 Z M13.125 242.5 C11.68413448 243.73263383 11.68413448 243.73263383 11.6875 247.4375 C11.71973229 254.14181717 15.47838595 259.85338595 20.125 264.5 C22.79449409 264.74315656 22.79449409 264.74315656 25.75 264.625 C26.75289063 264.60695313 27.75578125 264.58890625 28.7890625 264.5703125 C29.55992187 264.54710937 30.33078125 264.52390625 31.125 264.5 C26.43330308 256.70061959 21.41341892 249.12141055 15.125 242.5 C14.465 242.5 13.805 242.5 13.125 242.5 Z M-38.1875 262 C-39.07050781 262.2784375 -39.95351562 262.556875 -40.86328125 262.84375 C-41.52714844 263.0603125 -42.19101563 263.276875 -42.875 263.5 C-42.875 263.83 -42.875 264.16 -42.875 264.5 C-37.925 264.5 -32.975 264.5 -27.875 264.5 C-27.875 263.18 -27.875 261.86 -27.875 260.5 C-31.63768444 260.33728932 -34.60723386 260.85431484 -38.1875 262 Z " fill="#020202" transform="translate(249.875,-0.5)"/>
<path d="M0 0 C10 0 10 0 12.6640625 2.23828125 C13.31117188 3.25277344 13.95828125 4.26726562 14.625 5.3125 C14.98996582 5.85865967 15.35493164 6.40481934 15.73095703 6.9675293 C16.84232353 8.63073182 17.92148352 10.31531002 19 12 C20.27882729 13.78012759 21.5700904 15.5514025 22.875 17.3125 C23.51179688 18.19421875 24.14859375 19.0759375 24.8046875 19.984375 C26.50413458 22.31884679 28.21818916 24.63924383 29.9453125 26.953125 C30.70352295 27.97345825 30.70352295 27.97345825 31.47705078 29.0144043 C32.479445 30.36244615 33.48553934 31.7077458 34.49560547 33.05004883 C38 37.77570935 38 37.77570935 38 40 C38.66 40 39.32 40 40 40 C40 27.13 40 14.26 40 1 C40.66 1 41.32 1 42 1 C42.495 2.98 42.495 2.98 43 5 C43.969375 4.979375 44.93875 4.95875 45.9375 4.9375 C49 5 49 5 50 6 C50.09346915 7.65738443 50.11744977 9.31874644 50.11352539 10.97875977 C50.11344986 12.03978409 50.11337433 13.10080841 50.11329651 14.19398499 C50.10813522 15.348134 50.10297394 16.50228302 50.09765625 17.69140625 C50.0962413 18.86638168 50.09482635 20.04135712 50.09336853 21.25193787 C50.08774992 25.02215064 50.07519426 28.79230504 50.0625 32.5625 C50.0574874 35.11132727 50.05292408 37.66015547 50.04882812 40.20898438 C50.03777444 46.47267633 50.02101821 52.73633399 50 59 C48.55689605 59.05944619 47.11308649 59.10193383 45.66918945 59.13720703 C44.86528275 59.16267609 44.06137604 59.18814514 43.23310852 59.21438599 C41 59 41 59 38.29296875 56.8046875 C37.59816406 55.83789062 36.90335938 54.87109375 36.1875 53.875 C35.44757813 52.8746875 34.70765625 51.874375 33.9453125 50.84375 C31.93880552 47.910543 29.95318472 44.96884078 28 42 C27.34 41.67 26.68 41.34 26 41 C25.13367899 39.44062218 24.27011638 37.87966805 23.41796875 36.3125 C20.87953696 32.17268838 17.80675875 28.40320439 14.828125 24.57421875 C13 22 13 22 13 20 C12.34 20 11.68 20 11 20 C11 32.87 11 45.74 11 59 C7.37 59 3.74 59 0 59 C0 39.53 0 20.06 0 0 Z " fill="#F3F3F3" transform="translate(121,206)"/>
<path d="M0 0 C1.79093191 -0.08086147 3.58289628 -0.13912702 5.375 -0.1875 C6.87160156 -0.23970703 6.87160156 -0.23970703 8.3984375 -0.29296875 C9.25695312 -0.19628906 10.11546875 -0.09960938 11 0 C12.87853919 2.81780879 13.57489844 4.66826651 14.4375 7.875 C15.53525345 11.69782986 16.91358462 14.60957501 19 18 C19.81789406 20.19809029 20.53260358 22.41583092 21.23828125 24.65234375 C21.97745239 26.9305071 22.81306568 29.14580828 23.6875 31.375 C25 35 25 35 25 38 C25.66 38 26.32 38 27 38 C27.33773437 38.96421875 27.67546875 39.9284375 28.0234375 40.921875 C28.47382212 42.19796475 28.92435053 43.47400376 29.375 44.75 C29.70757812 45.70132813 29.70757812 45.70132813 30.046875 46.671875 C30.97019665 49.27890084 31.89888562 51.80320021 33.1640625 54.265625 C34 56 34 56 34 59 C30.37 59 26.74 59 23 59 C19 50.25 19 50.25 19 48 C10.09 48 1.18 48 -8 48 C-8.33 50.31 -8.66 52.62 -9 55 C-9.66 56.32 -10.32 57.64 -11 59 C-14.63 59 -18.26 59 -22 59 C-20.16446099 48.53742765 -15.85102117 38.88813662 -11.375 29.3125 C-9.21729846 24.6672572 -7.60562505 19.95631931 -6.046875 15.08203125 C-4.30171079 9.94421571 -2.15348253 4.97772191 0 0 Z " fill="#F1F1F1" transform="translate(36,206)"/>
<path d="M0 0 C12.87 0 25.74 0 39 0 C39 3.3 39 6.6 39 10 C29.76 10 20.52 10 11 10 C11 14.95 11 19.9 11 25 C10.67 25 10.34 25 10 25 C10 19.72 10 14.44 10 9 C19.24 9 28.48 9 38 9 C38 6.36 38 3.72 38 1 C20.675 1.495 20.675 1.495 3 2 C3.66 5.63 4.32 9.26 5 13 C5.23964199 15.05689005 5.44774602 17.11822408 5.59765625 19.18359375 C5.67693359 20.21291016 5.75621094 21.24222656 5.83789062 22.30273438 C5.91201172 23.33720703 5.98613281 24.37167969 6.0625 25.4375 C6.21700756 27.54059047 6.3744376 29.64346881 6.53515625 31.74609375 C6.600979 32.66060303 6.66680176 33.5751123 6.73461914 34.51733398 C6.97211189 37.27958147 6.97211189 37.27958147 8 41 C8.66 38.36 9.32 35.72 10 33 C18.02124152 32.28586721 25.94641862 31.85474503 34 32 C34 30.02 34 28.04 34 26 C26.74 26 19.48 26 12 26 C12 25.67 12 25.34 12 25 C19.59 25 27.18 25 35 25 C35 27.97 35 30.94 35 34 C27.08 34 19.16 34 11 34 C11 38.95 11 43.9 11 49 C20.57 49 30.14 49 40 49 C40 52.3 40 55.6 40 59 C26.8 59 13.6 59 0 59 C0 39.53 0 20.06 0 0 Z M27.6875 55.5 C26.80449219 55.7784375 25.92148438 56.056875 25.01171875 56.34375 C24.34785156 56.5603125 23.68398437 56.776875 23 57 C23 57.33 23 57.66 23 58 C27.95 58 32.9 58 38 58 C38 56.68 38 55.36 38 54 C34.23731556 53.83728932 31.26776614 54.35431484 27.6875 55.5 Z " fill="#EEECEE" transform="translate(184,206)"/>
<path d="M0 0 C3.63 0 7.26 0 11 0 C11 19.47 11 38.94 11 59 C7.37 59 3.74 59 0 59 C0 39.53 0 20.06 0 0 Z " fill="#EDEDED" transform="translate(77,206)"/>
<path d="M0 0 C0.66 0 1.32 0 2 0 C1.67 3.63 1.34 7.26 1 11 C2.65 10.34 4.3 9.68 6 9 C5.23591661 13.72640157 2.27701633 16.78413129 -0.6015625 20.46484375 C-2.25973907 22.90680879 -2.25973907 22.90680879 -1.74609375 25.640625 C-1.49988281 26.41921875 -1.25367188 27.1978125 -1 28 C-0.66666667 29.66666667 -0.33333333 31.33333333 0 33 C-0.99 33.495 -0.99 33.495 -2 34 C-2.46523063 35.89533342 -2.46523063 35.89533342 -2.625 38.0625 C-2.74875 39.361875 -2.8725 40.66125 -3 42 C-7.00647751 40.6645075 -7.75744636 38.47234113 -10 35 C-10.66 34.67 -11.32 34.34 -12 34 C-12.268125 34.721875 -12.53625 35.44375 -12.8125 36.1875 C-13.99901362 38.99766383 -15.27485639 41.48416557 -17 44 C-17.66 44 -18.32 44 -19 44 C-17.66666667 40 -16.33333333 36 -15 32 C-23.85959847 35.51984048 -29.85543999 47.37414094 -35 55 C-33.54119891 54.85892253 -32.08296449 54.71197585 -30.625 54.5625 C-29.81289062 54.48128906 -29.00078125 54.40007812 -28.1640625 54.31640625 C-25.95727195 54.10909886 -25.95727195 54.10909886 -24 53 C-24.33 53.99 -24.66 54.98 -25 56 C-28.63 56 -32.26 56 -36 56 C-36.36997319 50.45040214 -36.36997319 50.45040214 -34.5625 48.25 C-34.046875 47.8375 -33.53125 47.425 -33 47 C-32.67 46.34 -32.34 45.68 -32 45 C-31.34 45 -30.68 45 -30 45 C-29.76667969 44.3090625 -29.53335938 43.618125 -29.29296875 42.90625 C-27.46211061 38.79096766 -24.75072916 35.36429103 -22.01367188 31.81640625 C-20.17946854 29.30582198 -19.00645608 27.60318223 -18.97265625 24.4453125 C-20.72238751 20.28055293 -23.59742266 17.04131741 -26.3828125 13.5234375 C-26.91648438 12.69070312 -27.45015625 11.85796875 -28 11 C-27.67 10.01 -27.34 9.02 -27 8 C-26.67 8.99 -26.34 9.98 -26 11 C-25.34 11 -24.68 11 -24 11 C-22.4921875 12.96875 -22.4921875 12.96875 -20.875 15.5 C-20.06675781 16.75296875 -20.06675781 16.75296875 -19.2421875 18.03125 C-18.83226562 18.6809375 -18.42234375 19.330625 -18 20 C-17.34 19.67 -16.68 19.34 -16 19 C-15.91995518 15.4780279 -15.95994298 12.38018531 -17 9 C-16.34 9 -15.68 9 -15 9 C-13.68 11.31 -12.36 13.62 -11 16 C-7.39272783 11.65379323 -4.50441083 7.05423362 -1.5859375 2.23046875 C-1.06257813 1.49441406 -0.53921875 0.75835937 0 0 Z " fill="#EDEBEC" transform="translate(265,209)"/>
<path d="M0 0 C0.66 0 1.32 0 2 0 C2.67595315 1.41225926 3.34040059 2.83002905 4 4.25 C4.37125 5.03890625 4.7425 5.8278125 5.125 6.640625 C6 9 6 9 6 13 C6.66 13 7.32 13 8 13 C8.495 13.598125 8.99 14.19625 9.5 14.8125 C13.16613231 18.02036577 17.34218148 18.8266564 22 20 C22 20.66 22 21.32 22 22 C21.33613281 22.24234375 20.67226563 22.4846875 19.98828125 22.734375 C12.87300912 25.43506223 7.99799315 27.42643363 4.75 34.625 C4.16000236 36.08064991 3.57554217 37.53857429 3 39 C2.67 39.66 2.34 40.32 2 41 C1.34 41 0.68 41 0 41 C-1.00484204 39.04414675 -2.00373805 37.08523763 -3 35.125 C-3.8353125 33.48917969 -3.8353125 33.48917969 -4.6875 31.8203125 C-6 29 -6 29 -6 27 C-6.70125 26.7525 -7.4025 26.505 -8.125 26.25 C-11.37002459 24.83911974 -14.10316737 23.02104602 -17 21 C-14 19 -14 19 -12 19 C-12 18.34 -12 17.68 -12 17 C-10.01310269 15.64721885 -8.01254782 14.31431695 -6 13 C-5.67 12.34 -5.34 11.68 -5 11 C-4.34 11 -3.68 11 -3 11 C-2.01 7.37 -1.02 3.74 0 0 Z " fill="#046CF9" transform="translate(464,211)"/>
<path d="M0 0 C12.87 0 25.74 0 39 0 C39 3.3 39 6.6 39 10 C29.76 10 20.52 10 11 10 C11 14.95 11 19.9 11 25 C10.67 25 10.34 25 10 25 C10 19.72 10 14.44 10 9 C19.24 9 28.48 9 38 9 C38 6.36 38 3.72 38 1 C20.675 1.495 20.675 1.495 3 2 C3.66 5.63 4.32 9.26 5 13 C5.23964199 15.05689005 5.44774602 17.11822408 5.59765625 19.18359375 C5.67693359 20.21291016 5.75621094 21.24222656 5.83789062 22.30273438 C5.91201172 23.33720703 5.98613281 24.37167969 6.0625 25.4375 C6.21700756 27.54059047 6.3744376 29.64346881 6.53515625 31.74609375 C6.600979 32.66060303 6.66680176 33.5751123 6.73461914 34.51733398 C6.97211189 37.27958147 6.97211189 37.27958147 8 41 C8.66 38.36 9.32 35.72 10 33 C18.02124152 32.28586721 25.94641862 31.85474503 34 32 C34 30.02 34 28.04 34 26 C26.74 26 19.48 26 12 26 C12 25.67 12 25.34 12 25 C19.59 25 27.18 25 35 25 C35 27.97 35 30.94 35 34 C27.08 34 19.16 34 11 34 C11 38.95 11 43.9 11 49 C10.34 48.34 9.68 47.68 9 47 C8.01 47 7.02 47 6 47 C4.22067142 38.7567533 3.60188046 30.73071035 3.375 22.3125 C3.33632812 21.12205078 3.29765625 19.93160156 3.2578125 18.70507812 C3.16459005 15.80352947 3.07878652 12.90197034 3 10 C2.34 10 1.68 10 1 10 C1 26.17 1 42.34 1 59 C0.67 59 0.34 59 0 59 C0 39.53 0 20.06 0 0 Z " fill="#A6A0A2" transform="translate(184,206)"/>
<path d="M0 0 C0.66 0 1.32 0 2 0 C4.66557258 6.05022986 6.51030705 11.38914524 7 18 C7.66 18 8.32 18 9 18 C9.33 19.65 9.66 21.3 10 23 C4.06 23 -1.88 23 -8 23 C-6.50510921 14.84605024 -3.7079507 7.4159014 0 0 Z " fill="#202020" transform="translate(41,222)"/>
<path d="M0 0 C2.56127731 1.28063866 2.63202151 2.26734725 3.6875 4.875 C5.23164219 8.1511648 6.38625182 9.60013712 9.75 11 C10.8225 11.33 11.895 11.66 13 12 C13 12.66 13 13.32 13 14 C12.46890625 14.1959375 11.9378125 14.391875 11.390625 14.59375 C6.04092873 16.85858492 3.85858492 19.04092873 1.59375 24.390625 C1.3978125 24.92171875 1.201875 25.4528125 1 26 C-1 25 -1 25 -2.3125 22.125 C-4.16052625 18.70272918 -5.56202925 17.67252631 -9 16 C-8.75 13.6875 -8.75 13.6875 -8 11 C-7.38125 10.54625 -6.7625 10.0925 -6.125 9.625 C-3.10188106 7.31320316 -2.35595308 4.4867365 -1 1 C-0.67 0.67 -0.34 0.34 0 0 Z " fill="#076CF4" transform="translate(443,188)"/>
<path d="M0 0 C0.12375 1.918125 0.12375 1.918125 0.25 3.875 C0.45869931 6.05333418 0.45869931 6.05333418 1 8 C2.92064793 9.5899433 2.92064793 9.5899433 5 10 C4.57209311 14.70697582 2.44780671 18.775232 -1 22 C-2.32 22 -3.64 22 -5 22 C-5.20625 20.88625 -5.4125 19.7725 -5.625 18.625 C-6.07875 17.42875 -6.5325 16.2325 -7 15 C-10.00847418 13.77479736 -10.00847418 13.77479736 -13 13 C-13.875 10.875 -13.875 10.875 -14 9 C-12.35 8.67 -10.7 8.34 -9 8 C-9 7.34 -9 6.68 -9 6 C-8.34 5.67 -7.68 5.34 -7 5 C-7.33 4.34 -7.66 3.68 -8 3 C-5.53387212 -0.1151089 -3.89156016 -0.31553191 0 0 Z " fill="#051437" transform="translate(488,194)"/>
<path d="M0 0 C0.33 0.66 0.66 1.32 1 2 C-0.69449646 6.10246511 -2.58870829 9.13891663 -6 12 C-6.66 12 -7.32 12 -8 12 C-7.88693303 13.95894361 -7.88693303 13.95894361 -7 16 C-6.236875 16.2475 -5.47375 16.495 -4.6875 16.75 C-1.0442878 18.4445173 -0.42085112 20.63093331 1.10546875 24.22265625 C1.87092844 26.18458539 1.87092844 26.18458539 4 27 C4.309375 26.21625 4.61875 25.4325 4.9375 24.625 C6 22 6 22 7 20 C7.66 20 8.32 20 9 20 C9 19.34 9 18.68 9 18 C9.99 18.33 10.98 18.66 12 19 C11.236875 19.825 10.47375 20.65 9.6875 21.5 C6.70294364 25.04416068 5.43446489 28.62110717 4 33 C3.34 33 2.68 33 2 33 C0.99515796 31.04414675 -0.00373805 29.08523763 -1 27.125 C-1.556875 26.03445312 -2.11375 24.94390625 -2.6875 23.8203125 C-4 21 -4 21 -4 19 C-4.70125 18.7525 -5.4025 18.505 -6.125 18.25 C-9.37002459 16.83911974 -12.10316737 15.02104602 -15 13 C-12 11 -12 11 -10 11 C-10 10.34 -10 9.68 -10 9 C-8.01310269 7.64721885 -6.01254782 6.31431695 -4 5 C-3.67 4.34 -3.34 3.68 -3 3 C-2.34 3 -1.68 3 -1 3 C-0.67 2.01 -0.34 1.02 0 0 Z " fill="#145FC7" transform="translate(462,219)"/>
<path d="M0 0 C0.99 0.33 1.98 0.66 3 1 C3.69658363 2.65438613 4.36096883 4.32254318 5 6 C6.52007842 7.77277259 6.52007842 7.77277259 8 9 C7.195625 9.763125 6.39125 10.52625 5.5625 11.3125 C2.83200976 13.79430898 2.83200976 13.79430898 2 17 C1.34 17 0.68 17 0 17 C-0.226875 16.21625 -0.45375 15.4325 -0.6875 14.625 C-1.78125 11.78125 -1.78125 11.78125 -4.625 10.6875 C-5.40875 10.460625 -6.1925 10.23375 -7 10 C-6.67 9.01 -6.34 8.02 -6 7 C-5.360625 6.896875 -4.72125 6.79375 -4.0625 6.6875 C-3.381875 6.460625 -2.70125 6.23375 -2 6 C-0.6954344 3.00384054 -0.6954344 3.00384054 0 0 Z " fill="#1E58AF" transform="translate(483,197)"/>
<path d="M0 0 C2 2 2 2 2.23046875 3.91015625 C2.11111111 9.88888889 2.11111111 9.88888889 1 11 C-5.52542373 11.23728814 -5.52542373 11.23728814 -8 10 C-8.36272727 3.59181818 -8.36272727 3.59181818 -6.8125 1.0625 C-4.37896796 -0.36405327 -2.77457104 -0.35571424 0 0 Z " fill="#7D6057" transform="translate(364,272)"/>
<path d="M0 0 C0.02689216 1.47906892 0.04634621 2.95827483 0.0625 4.4375 C0.07410156 5.26121094 0.08570313 6.08492188 0.09765625 6.93359375 C0 9 0 9 -1 10 C-4.4375 10.1875 -4.4375 10.1875 -8 10 C-10 8 -10 8 -10.3125 5.0625 C-10 2 -10 2 -8.9375 0.0625 C-5.87530347 -1.61676907 -3.30629059 -0.68621125 0 0 Z " fill="#2F160F" transform="translate(245,273)"/>
<path d="M0 0 C2.97 0 5.94 0 9 0 C10.15866723 4.63466892 9.70010994 7.33260039 9 12 C8.01 12 7.02 12 6 12 C5.896875 11.360625 5.79375 10.72125 5.6875 10.0625 C5.460625 9.381875 5.23375 8.70125 5 8 C4.01 7.67 3.02 7.34 2 7 C1.67 8.32 1.34 9.64 1 11 C0.67 11 0.34 11 0 11 C0 7.37 0 3.74 0 0 Z " fill="#1A0504" transform="translate(430,272)"/>
<path d="M0 0 C5.625 -0.25 5.625 -0.25 9 2 C9.43132515 6.05445642 9.30019361 7.54970958 7 11 C3.375 11.1875 3.375 11.1875 0 11 C0 7.37 0 3.74 0 0 Z " fill="#644740" transform="translate(73,272)"/>
<path d="M0 0 C0.33 0.66 0.66 1.32 1 2 C0.67 2.66 0.34 3.32 0 4 C-0.66 4 -1.32 4 -2 4 C-1.67 4.99 -1.34 5.98 -1 7 C-0.34 7.33 0.32 7.66 1 8 C1 8.66 1 9.32 1 10 C1.66 10 2.32 10 3 10 C3 10.66 3 11.32 3 12 C6.20322578 11.2983557 6.20322578 11.2983557 7.5 8.4375 C7.995 7.633125 8.49 6.82875 9 6 C9.99 6 10.98 6 12 6 C12 5.34 12 4.68 12 4 C11.34 4 10.68 4 10 4 C10.33 3.34 10.66 2.68 11 2 C12.98 2.66 14.96 3.32 17 4 C17 4.66 17 5.32 17 6 C16.46890625 6.1959375 15.9378125 6.391875 15.390625 6.59375 C10.04092873 8.85858492 7.85858492 11.04092873 5.59375 16.390625 C5.3978125 16.92171875 5.201875 17.4528125 5 18 C3 17 3 17 1.6875 14.125 C-0.16052625 10.70272918 -1.56202925 9.67252631 -5 8 C-4.64950425 4.75791433 -4.43778819 3.38472296 -1.9375 1.1875 C-1.298125 0.795625 -0.65875 0.40375 0 0 Z " fill="#195CBF" transform="translate(439,196)"/>
<path d="M0 0 C1.32 0 2.64 0 4 0 C4 0.66 4 1.32 4 2 C7.465 1.505 7.465 1.505 11 1 C14 6.75 14 6.75 14 9 C13.34 9 12.68 9 12 9 C11.67 11.31 11.34 13.62 11 16 C7.37 16 3.74 16 0 16 C0 15.67 0 15.34 0 15 C2.97 15 5.94 15 9 15 C8.60350587 13.20376144 8.18206548 11.41301565 7.75 9.625 C7.51796875 8.62726563 7.2859375 7.62953125 7.046875 6.6015625 C6.25241921 3.88503928 6.25241921 3.88503928 4.015625 2.7734375 C3.35046875 2.51820313 2.6853125 2.26296875 2 2 C1.34 1.34 0.68 0.68 0 0 Z " fill="#141C3A" transform="translate(430,207)"/>
<path d="M0 0 C1.98 0 3.96 0 6 0 C8 2 8 2 8.1953125 4.3828125 C8.17210937 5.28773438 8.14890625 6.19265625 8.125 7.125 C8.10695313 8.03507812 8.08890625 8.94515625 8.0703125 9.8828125 C8.04710937 10.58148438 8.02390625 11.28015625 8 12 C7.34 12 6.68 12 6 12 C6 10.68 6 9.36 6 8 C5.01 8 4.02 8 3 8 C3 9.65 3 11.3 3 13 C2.01 12.67 1.02 12.34 0 12 C0 8.04 0 4.08 0 0 Z " fill="#614239" transform="translate(338,271)"/>
<path d="M0 0 C6 0 6 0 9 2 C8.67 3.65 8.34 5.3 8 7 C6.35 7.33 4.7 7.66 3 8 C3 9.65 3 11.3 3 13 C2.01 12.67 1.02 12.34 0 12 C0 8.04 0 4.08 0 0 Z " fill="#4D2A26" transform="translate(394,271)"/>
<path d="M0 0 C1.670625 0.061875 1.670625 0.061875 3.375 0.125 C3.375 1.115 3.375 2.105 3.375 3.125 C1.395 4.115 1.395 4.115 -0.625 5.125 C-0.295 5.785 0.035 6.445 0.375 7.125 C1.365 7.455 2.355 7.785 3.375 8.125 C3.045 9.115 2.715 10.105 2.375 11.125 C0.04205225 11.16741723 -2.29202567 11.16592937 -4.625 11.125 C-6.51988952 9.23011048 -5.80519112 6.55360854 -5.85546875 4.03515625 C-5.38613558 0.14525929 -3.62356962 0.12495068 0 0 Z " fill="#24100D" transform="translate(110.625,271.875)"/>
<path d="M0 0 C2.31 0.33 4.62 0.66 7 1 C6.67 1.66 6.34 2.32 6 3 C5.01 3 4.02 3 3 3 C3.66 4.65 4.32 6.3 5 8 C5.66 7.67 6.32 7.34 7 7 C7.33 8.98 7.66 10.96 8 13 C5.36 13 2.72 13 0 13 C0 8.71 0 4.42 0 0 Z " fill="#220B0A" transform="translate(413,271)"/>
<path d="M0 0 C0.65576172 1.76123047 0.65576172 1.76123047 1 4 C0.02783203 5.89111328 0.02783203 5.89111328 -1.4921875 7.8203125 C-2.03230469 8.52027344 -2.57242188 9.22023437 -3.12890625 9.94140625 C-3.70511719 10.66199219 -4.28132812 11.38257813 -4.875 12.125 C-5.9984215 13.56430419 -7.12086466 15.0043727 -8.2421875 16.4453125 C-8.99798096 17.39688232 -8.99798096 17.39688232 -9.76904297 18.36767578 C-11.07200569 19.9927867 -11.07200569 19.9927867 -12 22 C-10.54119891 21.85892253 -9.08296449 21.71197585 -7.625 21.5625 C-6.81289062 21.48128906 -6.00078125 21.40007812 -5.1640625 21.31640625 C-2.95727195 21.10909886 -2.95727195 21.10909886 -1 20 C-1.33 20.99 -1.66 21.98 -2 23 C-5.63 23 -9.26 23 -13 23 C-13.36997319 17.45040214 -13.36997319 17.45040214 -11.5625 15.25 C-11.046875 14.8375 -10.53125 14.425 -10 14 C-9.67 13.34 -9.34 12.68 -9 12 C-8.34 12 -7.68 12 -7 12 C-6.773125 11.319375 -6.54625 10.63875 -6.3125 9.9375 C-4.64427643 6.20385676 -2.44270392 3.27836579 0 0 Z " fill="#A4A3A3" transform="translate(242,242)"/>
<path d="M0 0 C2.33294775 -0.04241723 4.66702567 -0.04092937 7 0 C8 1 8 1 8.125 3.5 C8 6 8 6 7 7 C5.33382885 7.04063832 3.66611905 7.042721 2 7 C2 8.32 2 9.64 2 11 C1.34 11 0.68 11 0 11 C0 7.37 0 3.74 0 0 Z " fill="#765A50" transform="translate(320,272)"/>
<path d="M0 0 C1.98 0 3.96 0 6 0 C6.75241109 3.65456815 7.40049704 7.31733897 8 11 C7.34 11 6.68 11 6 11 C5.67 9.68 5.34 8.36 5 7 C4.01 7 3.02 7 2 7 C2 8.32 2 9.64 2 11 C1.34 11 0.68 11 0 11 C0 7.37 0 3.74 0 0 Z " fill="#7F6158" transform="translate(37,272)"/>
<path d="M0 0 C1.32 0 2.64 0 4 0 C4 4.29 4 8.58 4 13 C2.68 12.67 1.36 12.34 0 12 C-1.1898306 9.6203388 -1.13349966 8.08514265 -1.125 5.4375 C-1.12886719 4.22900391 -1.12886719 4.22900391 -1.1328125 2.99609375 C-1 1 -1 1 0 0 Z " fill="#36251F" transform="translate(91,271)"/>
<path d="M0 0 C5.75 -0.125 5.75 -0.125 8 1 C7.67 2.65 7.34 4.3 7 6 C5.35 6.33 3.7 6.66 2 7 C2 8.32 2 9.64 2 11 C1.34 11 0.68 11 0 11 C0 7.37 0 3.74 0 0 Z " fill="#52362F" transform="translate(165,272)"/>
<path d="M0 0 C3.3 0 6.6 0 10 0 C11.226024 5.16681543 11.226024 5.16681543 11 8 C9.25685324 10.28823499 7.44616722 11.36922185 5 13 C4.34 13.66 3.68 14.32 3 15 C3 14.34 3 13.68 3 13 C2.01 12.67 1.02 12.34 0 12 C0 8.04 0 4.08 0 0 Z M1 1 C1 4.63 1 8.26 1 12 C1.66 12 2.32 12 3 12 C3 10.68 3 9.36 3 8 C4.65 7.67 6.3 7.34 8 7 C8.33 5.35 8.66 3.7 9 2 C6.29120665 0.64560332 3.99066732 0.93498549 1 1 Z " fill="#1F0F0B" transform="translate(164,271)"/>
<path d="M0 0 C0.66 0.99 1.32 1.98 2 3 C1.45730469 3.44730469 0.91460937 3.89460937 0.35546875 4.35546875 C-3.58159796 7.68246746 -6.41102278 10.50335536 -9 15 C-9.99 15 -10.98 15 -12 15 C-11.43251874 11.02763121 -10.44641497 8.2056472 -8 5 C-2.93103448 2 -2.93103448 2 0 2 C0 1.34 0 0.68 0 0 Z " fill="#021132" transform="translate(456,200)"/>
<path d="M0 0 C2.31 0 4.62 0 7 0 C6.67 2.31 6.34 4.62 6 7 C4.68 7 3.36 7 2 7 C2 8.32 2 9.64 2 11 C1.34 11 0.68 11 0 11 C0 7.37 0 3.74 0 0 Z " fill="#714E44" transform="translate(256,272)"/>
<path d="M0 0 C0.67546875 0.27714844 1.3509375 0.55429688 2.046875 0.83984375 C3.38492187 1.38318359 3.38492187 1.38318359 4.75 1.9375 C6.07257813 2.47697266 6.07257813 2.47697266 7.421875 3.02734375 C9.61186104 3.85356576 11.71898271 4.49369943 14 5 C14 5.66 14 6.32 14 7 C12.3767313 7.6708712 10.75132422 8.33657029 9.125 9 C8.22007812 9.37125 7.31515625 9.7425 6.3828125 10.125 C4 11 4 11 2 11 C2 10.34 2 9.68 2 9 C2.66 9 3.32 9 4 9 C4.33 7.35 4.66 5.7 5 4 C3.35 3.67 1.7 3.34 0 3 C0 2.01 0 1.02 0 0 Z " fill="#1662D2" transform="translate(472,226)"/>
<path d="M0 0 C1.98 0 3.96 0 6 0 C6.87867729 3.73437848 7.08912219 7.16774573 7 11 C6.54625 10.34 6.0925 9.68 5.625 9 C5.08875 8.34 4.5525 7.68 4 7 C3.34 7 2.68 7 2 7 C1.34 8.32 0.68 9.64 0 11 C0 7.37 0 3.74 0 0 Z " fill="#88695D" transform="translate(201,272)"/>
<path d="M0 0 C0 3 0 3 -1.65234375 4.99291992 C-2.78349609 6.10050659 -2.78349609 6.10050659 -3.9375 7.23046875 C-4.74960938 8.03291016 -5.56171875 8.83535156 -6.3984375 9.66210938 C-7.25695312 10.49548828 -8.11546875 11.32886719 -9 12.1875 C-10.28777344 13.4549707 -10.28777344 13.4549707 -11.6015625 14.74804688 C-13.7278365 16.83888298 -15.86078464 18.92241983 -18 21 C-18.66 20.67 -19.32 20.34 -20 20 C-19.01 18.515 -19.01 18.515 -18 17 C-17.34 17 -16.68 17 -16 17 C-16 16.34 -16 15.68 -16 15 C-15.34 15 -14.68 15 -14 15 C-13.773125 14.443125 -13.54625 13.88625 -13.3125 13.3125 C-11.62449964 10.33840412 -9.53323483 8.27991135 -7 6 C-6.34 6 -5.68 6 -5 6 C-5 5.34 -5 4.68 -5 4 C-4.34 4 -3.68 4 -3 4 C-3 3.34 -3 2.68 -3 2 C-2.01 1.34 -1.02 0.68 0 0 Z " fill="#5B5B5B" transform="translate(83,63)"/>
<path d="M0 0 C0.66 0 1.32 0 2 0 C2.99 2.31 3.98 4.62 5 7 C5.99 4.69 6.98 2.38 8 0 C8.66 0 9.32 0 10 0 C10 1.98 10 3.96 10 6 C9.34 6 8.68 6 8 6 C7.34 7.65 6.68 9.3 6 11 C5.01 11 4.02 11 3 11 C2.67 9.68 2.34 8.36 2 7 C1.34 8.32 0.68 9.64 0 11 C0 7.37 0 3.74 0 0 Z " fill="#866253" transform="translate(275,272)"/>
<path d="M0 0 C1.99954746 -0.04254356 4.00041636 -0.04080783 6 0 C7 1 7 1 7.125 3.5 C7 6 7 6 6 7 C4.33382885 7.04063832 2.66611905 7.042721 1 7 C0.67 8.32 0.34 9.64 0 11 C0 7.37 0 3.74 0 0 Z " fill="#8C7066" transform="translate(19,272)"/>
<path d="M0 0 C-1.98 0.99 -1.98 0.99 -4 2 C-3.30132812 2.38671875 -2.60265625 2.7734375 -1.8828125 3.171875 C-0.97273438 3.69265625 -0.06265625 4.2134375 0.875 4.75 C1.77992188 5.26046875 2.68484375 5.7709375 3.6171875 6.296875 C6.11834757 8.08458941 7.0156817 9.12624312 8 12 C8 12.99 8 13.98 8 15 C7.34 15 6.68 15 6 15 C5.67 13.02 5.34 11.04 5 9 C4.13375 8.9175 3.2675 8.835 2.375 8.75 C-1.55724758 7.8761672 -3.91256135 6.57286554 -7 4 C-7 2.68 -7 1.36 -7 0 C-3.98968256 -0.93423645 -3.13349732 -1.04449911 0 0 Z " fill="#021743" transform="translate(452,230)"/>
<path d="M0 0 C0.66 0 1.32 0 2 0 C2.02688151 1.64574566 2.04634123 3.29161413 2.0625 4.9375 C2.07410156 5.85402344 2.08570313 6.77054687 2.09765625 7.71484375 C2 10 2 10 1 11 C-1.67058851 11.14115161 -4.32432238 11.04247107 -7 11 C-6.34 10.67 -5.68 10.34 -5 10 C-5 8.68 -5 7.36 -5 6 C-3.68 6 -2.36 6 -1 6 C-0.67 4.02 -0.34 2.04 0 0 Z " fill="#280E0C" transform="translate(263,273)"/>
<path d="M0 0 C0.02689216 1.47906892 0.04634621 2.95827483 0.0625 4.4375 C0.07410156 5.26121094 0.08570313 6.08492188 0.09765625 6.93359375 C0 9 0 9 -1 10 C-4.4375 10.1875 -4.4375 10.1875 -8 10 C-10 8 -10 8 -10.3125 5.0625 C-10 2 -10 2 -8.9375 0.0625 C-5.87530347 -1.61676907 -3.30629059 -0.68621125 0 0 Z M-6 0 C-8.2491908 1.82703227 -8.2491908 1.82703227 -8.25 4.5 C-8.2491908 7.17296773 -8.2491908 7.17296773 -6 9 C-3.21762345 8.59471099 -3.21762345 8.59471099 -1 7 C-0.7499227 4.54190002 -0.7499227 4.54190002 -1 2 C-1.66 1.34 -2.32 0.68 -3 0 C-3.99 0 -4.98 0 -6 0 Z " fill="#7F635A" transform="translate(245,273)"/>
<path d="M0 0 C-1.26831693 0.81642254 -2.53975931 1.62799105 -3.8125 2.4375 C-4.87404297 3.11619141 -4.87404297 3.11619141 -5.95703125 3.80859375 C-8 5 -8 5 -11 6 C-11 6.99 -11 7.98 -11 9 C-12.32 9.33 -13.64 9.66 -15 10 C-15 11.65 -15 13.3 -15 15 C-15.66 15 -16.32 15 -17 15 C-15.49198086 8.14536753 -13.00353304 4.00235536 -7 0 C-2.44444444 -1.22222222 -2.44444444 -1.22222222 0 0 Z " fill="#021644" transform="translate(484,235)"/>
<path d="M0 0 C0.66 0 1.32 0 2 0 C2.66 1.65 3.32 3.3 4 5 C3.34 5 2.68 5 2 5 C1.67 16.22 1.34 27.44 1 39 C0.67 39 0.34 39 0 39 C0 26.13 0 13.26 0 0 Z " fill="#353535" transform="translate(132,226)"/>
<path d="M0 0 C2.125 0.375 2.125 0.375 4 1 C4 3.31 4 5.62 4 8 C0.25 9.125 0.25 9.125 -2 8 C-2.125 5.125 -2.125 5.125 -2 2 C-1.34 1.34 -0.68 0.68 0 0 Z " fill="#200D08" transform="translate(360,273)"/>
<path d="M0 0 C0.33 0 0.66 0 1 0 C0.63265306 6.36734694 0.63265306 6.36734694 -2.375 9.375 C-6.67063196 12.03420074 -11.01050222 12.80444878 -16 12 C-17.32 11.01 -18.64 10.02 -20 9 C-13.07 9.495 -13.07 9.495 -6 10 C-6 9.34 -6 8.68 -6 8 C-5.01 8 -4.02 8 -3 8 C-1.92474806 5.34771188 -0.90543849 2.71631546 0 0 Z " fill="#5C565A" transform="translate(431,246)"/>
<path d="M0 0 C2.31 0 4.62 0 7 0 C7 0.33 7 0.66 7 1 C5.35 1 3.7 1 2 1 C2 2.32 2 3.64 2 5 C3.32 5.33 4.64 5.66 6 6 C4.68 6 3.36 6 2 6 C2 7.32 2 8.64 2 10 C3.98 10 5.96 10 8 10 C8 10.66 8 11.32 8 12 C5.36 12 2.72 12 0 12 C0 8.04 0 4.08 0 0 Z " fill="#6C554E" transform="translate(183,272)"/>
<path d="M0 0 C0.66 0.33 1.32 0.66 2 1 C0.5834979 4.4232134 -1.06827149 5.82484659 -4 8 C-4.33 8.99 -4.66 9.98 -5 11 C-6.65 10.67 -8.3 10.34 -10 10 C-8.5741914 6.54804233 -6.90253666 4.8985744 -3.875 2.75 C-3.15054687 2.22921875 -2.42609375 1.7084375 -1.6796875 1.171875 C-1.12539063 0.78515625 -0.57109375 0.3984375 0 0 Z " fill="#03163F" transform="translate(439,192)"/>
<path d="M0 0 C7.75 -0.125 7.75 -0.125 10 1 C10.59355614 3.64860427 10.74209269 6.29197322 11 9 C10.01 9.33 9.02 9.66 8 10 C7.17361624 7.10765685 7 5.11257569 7 2 C4.03 1.505 4.03 1.505 1 1 C1 4.63 1 8.26 1 12 C0.67 12 0.34 12 0 12 C0 8.04 0 4.08 0 0 Z " fill="#271210" transform="translate(36,271)"/>
<path d="M0 0 C0.99 0.495 0.99 0.495 2 1 C2 1.66 2 2.32 2 3 C2.66 3 3.32 3 4 3 C5.4375 4.8984375 5.4375 4.8984375 7 7.375 C8.57112484 9.84952162 9.92383041 11.92383041 12 14 C11.625 16.625 11.625 16.625 11 19 C9.86317966 17.29476949 8.72792926 15.58848354 7.59765625 13.87890625 C7.09105469 13.11449219 6.58445313 12.35007813 6.0625 11.5625 C5.55847656 10.80066406 5.05445313 10.03882813 4.53515625 9.25390625 C3.03247543 6.98263098 3.03247543 6.98263098 1.30859375 4.90234375 C0 3 0 3 0 0 Z " fill="#A09D9F" transform="translate(237,217)"/>
<path d="M0 0 C3.96 0 7.92 0 12 0 C11.3943662 7.38873239 11.3943662 7.38873239 9.75 9.9375 C7.56072063 11.26670533 5.5036444 11.54590763 3 12 C3.97776067 10.51990357 4.9572494 9.04094856 5.9375 7.5625 C6.48277344 6.73878906 7.02804687 5.91507813 7.58984375 5.06640625 C9 3 9 3 10 2 C6.7 1.67 3.4 1.34 0 1 C0 0.67 0 0.34 0 0 Z " fill="#5F5F60" transform="translate(268,206)"/>
<path d="M0 0 C0.78375 0.04125 1.5675 0.0825 2.375 0.125 C2.705 0.785 3.035 1.445 3.375 2.125 C1.725 2.125 0.075 2.125 -1.625 2.125 C-1.625 4.435 -1.625 6.745 -1.625 9.125 C-0.305 9.455 1.015 9.785 2.375 10.125 C2.375 9.465 2.375 8.805 2.375 8.125 C3.035 8.125 3.695 8.125 4.375 8.125 C4.045 9.115 3.715 10.105 3.375 11.125 C1.04205225 11.16741723 -1.29202567 11.16592937 -3.625 11.125 C-5.51988952 9.23011048 -4.80519112 6.55360854 -4.85546875 4.03515625 C-4.45978854 0.75570502 -3.15370959 0.15017665 0 0 Z " fill="#775F58" transform="translate(109.625,271.875)"/>
<path d="M0 0 C1.65 0 3.3 0 5 0 C4.01 0.33 3.02 0.66 2 1 C2.66868314 4.11332248 2.66868314 4.11332248 5.0625 5.1875 C5.701875 5.455625 6.34125 5.72375 7 6 C6.67 7.65 6.34 9.3 6 11 C4.02 11 2.04 11 0 11 C-0.33 10.34 -0.66 9.68 -1 9 C1.97 9.495 1.97 9.495 5 10 C4.33131686 6.88667752 4.33131686 6.88667752 1.9375 5.8125 C1.298125 5.544375 0.65875 5.27625 0 5 C0 3.35 0 1.7 0 0 Z " fill="#60403C" transform="translate(377,272)"/>
<path d="M0 0 C1.32 0 2.64 0 4 0 C6.71391278 4.77357872 8.56561146 8.34388537 8 14 C7.34 14 6.68 14 6 14 C5.32694982 12.39850114 4.66177773 10.79368971 4 9.1875 C3.62875 8.29417969 3.2575 7.40085938 2.875 6.48046875 C2 4 2 4 2 1 C1.34 0.67 0.68 0.34 0 0 Z " fill="#020D30" transform="translate(464,210)"/>
<path d="M0 0 C0.66 0.33 1.32 0.66 2 1 C1.67 1.99 1.34 2.98 1 4 C3.31 4.33 5.62 4.66 8 5 C7.34 6.98 6.68 8.96 6 11 C5.34 11 4.68 11 4 11 C3.6596875 9.824375 3.6596875 9.824375 3.3125 8.625 C2.21875 5.78125 2.21875 5.78125 -0.625 4.6875 C-1.40875 4.460625 -2.1925 4.23375 -3 4 C-2.67 3.01 -2.34 2.02 -2 1 C-1.34 0.67 -0.68 0.34 0 0 Z " fill="#1F52A4" transform="translate(479,203)"/>
<path d="M0 0 C1.65 0 3.3 0 5 0 C4.67 0.99 4.34 1.98 4 3 C3.34 2.67 2.68 2.34 2 2 C1.8453125 2.8971875 1.8453125 2.8971875 1.6875 3.8125 C0.44500369 7.76589736 -2.74208571 9.64082069 -6 12 C-6.33 10.68 -6.66 9.36 -7 8 C-5.35 7.67 -3.7 7.34 -2 7 C-2 6.34 -2 5.68 -2 5 C-1.34 4.67 -0.68 4.34 0 4 C-0.33 3.34 -0.66 2.68 -1 2 C-0.67 1.34 -0.34 0.68 0 0 Z " fill="#020A26" transform="translate(481,195)"/>
<path d="M0 0 C2.31 0 4.62 0 7 0 C7 0.33 7 0.66 7 1 C5.35 1 3.7 1 2 1 C2 2.32 2 3.64 2 5 C3.32 5.33 4.64 5.66 6 6 C4.68 6 3.36 6 2 6 C2 7.32 2 8.64 2 10 C3.65 10 5.3 10 7 10 C7 10.33 7 10.66 7 11 C4.69 11 2.38 11 0 11 C0 7.37 0 3.74 0 0 Z " fill="#80665E" transform="translate(55,272)"/>
<path d="M0 0 C1.37478516 0.01740234 1.37478516 0.01740234 2.77734375 0.03515625 C3.69644531 0.04417969 4.61554688 0.05320313 5.5625 0.0625 C6.27277344 0.07410156 6.98304688 0.08570313 7.71484375 0.09765625 C7.71484375 0.75765625 7.71484375 1.41765625 7.71484375 2.09765625 C4.74484375 2.09765625 1.77484375 2.09765625 -1.28515625 2.09765625 C-0.95515625 4.73765625 -0.62515625 7.37765625 -0.28515625 10.09765625 C-0.94515625 10.09765625 -1.60515625 10.09765625 -2.28515625 10.09765625 C-2.47927806 8.61934404 -2.66527756 7.13996309 -2.84765625 5.66015625 C-2.95207031 4.83644531 -3.05648438 4.01273438 -3.1640625 3.1640625 C-3.20402344 2.48214844 -3.24398438 1.80023438 -3.28515625 1.09765625 C-2.28515625 0.09765625 -2.28515625 0.09765625 0 0 Z " fill="#4F494A" transform="translate(347.28515625,245.90234375)"/>
<path d="M0 0 C0.33 0.66 0.66 1.32 1 2 C0.06421005 4.35981813 -0.93347808 6.69631264 -2 9 C-2.66 9 -3.32 9 -4 9 C-4.268125 9.639375 -4.53625 10.27875 -4.8125 10.9375 C-6 13 -6 13 -9 14 C-8.34 12.68 -7.68 11.36 -7 10 C-6.34 10 -5.68 10 -5 10 C-4.7834375 8.824375 -4.7834375 8.824375 -4.5625 7.625 C-4 5 -4 5 -3 3 C-2.34 3 -1.68 3 -1 3 C-0.67 2.01 -0.34 1.02 0 0 Z " fill="#01143F" transform="translate(463,213)"/>
<path d="M0 0 C0 1.98 0 3.96 0 6 C-1.65 6.33 -3.3 6.66 -5 7 C-5.33 7.99 -5.66 8.98 -6 10 C-6 7.03 -6 4.06 -6 1 C-1.125 0 -1.125 0 0 0 Z " fill="#29130F" transform="translate(191,272)"/>
<path d="M0 0 C1.32 0 2.64 0 4 0 C4 0.66 4 1.32 4 2 C0.62902617 3.49821059 -1.20442119 4 -5 4 C-4.42655063 6.86724686 -4.1385485 7.8614515 -2 10 C-3.32 10 -4.64 10 -6 10 C-6.33 7.69 -6.66 5.38 -7 3 C-3.535 2.505 -3.535 2.505 0 2 C0 1.34 0 0.68 0 0 Z " fill="#00031C" transform="translate(450,226)"/>
<path d="M0 0 C2.70608417 1.35304209 2.96183047 2.80966544 4.125 5.5625 C4.47820312 6.38878906 4.83140625 7.21507812 5.1953125 8.06640625 C5.46085937 8.70449219 5.72640625 9.34257812 6 10 C5.01 10 4.02 10 3 10 C3 9.34 3 8.68 3 8 C2.34 8 1.68 8 1 8 C1 7.34 1 6.68 1 6 C-0.32 6.33 -1.64 6.66 -3 7 C-1.125 1.125 -1.125 1.125 0 0 Z " fill="#1954AA" transform="translate(443,188)"/>
<path d="M0 0 C4.29 0 8.58 0 13 0 C13.33 1.32 13.66 2.64 14 4 C14.66 4.33 15.32 4.66 16 5 C15.01 5 14.02 5 13 5 C12.67 4.34 12.34 3.68 12 3 C8.37 3 4.74 3 1 3 C0.67 2.01 0.34 1.02 0 0 Z " fill="#5D5D5D" transform="translate(229,205)"/>
<path d="M0 0 C1.65 0 3.3 0 5 0 C5.50615298 1.26839526 6.00469099 2.53983102 6.5 3.8125 C6.91765625 4.87404297 6.91765625 4.87404297 7.34375 5.95703125 C8 8 8 8 8 11 C7.34 11 6.68 11 6 11 C5.87625 10.071875 5.87625 10.071875 5.75 9.125 C5.37875 8.073125 5.37875 8.073125 5 7 C4.34 6.690625 3.68 6.38125 3 6.0625 C2.34 5.711875 1.68 5.36125 1 5 C0.25 2.375 0.25 2.375 0 0 Z " fill="#24100D" transform="translate(378,271)"/>
<path d="M0 0 C0.66 0 1.32 0 2 0 C2.67595315 1.41225926 3.34040059 2.83002905 4 4.25 C4.37125 5.03890625 4.7425 5.8278125 5.125 6.640625 C6 9 6 9 6 13 C6.66 13 7.32 13 8 13 C8 13.66 8 14.32 8 15 C6.68 14.67 5.36 14.34 4 14 C3.34 10.7 2.68 7.4 2 4 C1.34 4 0.68 4 0 4 C0 2.68 0 1.36 0 0 Z " fill="#1955B2" transform="translate(464,211)"/>
<path d="M0 0 C0.99 0.33 1.98 0.66 3 1 C2.67 3.97 2.34 6.94 2 10 C2.99 10 3.98 10 5 10 C5 10.66 5 11.32 5 12 C3.35 12 1.7 12 0 12 C0 8.04 0 4.08 0 0 Z " fill="#532C28" transform="translate(413,272)"/>
<path d="M0 0 C4.62 0 9.24 0 14 0 C14.33 0.99 14.66 1.98 15 3 C8.565 3.495 8.565 3.495 2 4 C1.34 2.68 0.68 1.36 0 0 Z " fill="#717071" transform="translate(269,263)"/>
<path d="M0 0 C0.75 1.625 0.75 1.625 1 4 C-0.9375 7.25 -0.9375 7.25 -3 10 C-1.54119891 9.85892253 -0.08296449 9.71197585 1.375 9.5625 C2.18710938 9.48128906 2.99921875 9.40007812 3.8359375 9.31640625 C6.04272805 9.10909886 6.04272805 9.10909886 8 8 C7.67 8.99 7.34 9.98 7 11 C3.37 11 -0.26 11 -4 11 C-4.36997319 5.45040214 -4.36997319 5.45040214 -2.5625 3.25 C-2.046875 2.8375 -1.53125 2.425 -1 2 C-0.67 1.34 -0.34 0.68 0 0 Z " fill="#7F797F" transform="translate(233,254)"/>
<path d="M0 0 C1.32 0.33 2.64 0.66 4 1 C3.34 1 2.68 1 2 1 C2 2.32 2 3.64 2 5 C3.32 5 4.64 5 6 5 C6 5.66 6 6.32 6 7 C4.68 7 3.36 7 2 7 C1.67 8.32 1.34 9.64 1 11 C0.67 11 0.34 11 0 11 C0 7.37 0 3.74 0 0 Z " fill="#653B33" transform="translate(430,272)"/>
<path d="M0 0 C2.31 0 4.62 0 7 0 C7 0.33 7 0.66 7 1 C5.35 1 3.7 1 2 1 C2 2.32 2 3.64 2 5 C3.32 5.33 4.64 5.66 6 6 C4.68 6 3.36 6 2 6 C2 7.65 2 9.3 2 11 C1.34 11 0.68 11 0 11 C0 7.37 0 3.74 0 0 Z " fill="#856760" transform="translate(219,272)"/>
<path d="M0 0 C0.99 0.33 1.98 0.66 3 1 C3.33 4.3 3.66 7.6 4 11 C3.34 11 2.68 11 2 11 C0.875 7.25 0.875 7.25 2 5 C0.68 5 -0.64 5 -2 5 C-2 3.68 -2 2.36 -2 1 C-1.34 0.67 -0.68 0.34 0 0 Z " fill="#3E1713" transform="translate(434,272)"/>
<path d="M0 0 C0.33 0 0.66 0 1 0 C1 3.3 1 6.6 1 10 C-0.65 10.33 -2.3 10.66 -4 11 C-2.95902388 7.13351728 -1.96301592 3.50538557 0 0 Z " fill="#35120E" transform="translate(285,272)"/>
<path d="M0 0 C1.32 0.66 2.64 1.32 4 2 C3.01 2.495 3.01 2.495 2 3 C0.94647157 5.30965848 -0.05719096 7.6429774 -1 10 C-2.74627478 7.38058783 -3.38722388 5.96175123 -4 3 C-2.68 3 -1.36 3 0 3 C0 2.01 0 1.02 0 0 Z " fill="#220E08" transform="translate(281,270)"/>
<path d="M0 0 C0.66 0.66 1.32 1.32 2 2 C1.625 5.625 1.625 5.625 1 9 C-2.63 9 -6.26 9 -10 9 C-10 8.67 -10 8.34 -10 8 C-7.03 8 -4.06 8 -1 8 C-1.020625 6.865625 -1.04125 5.73125 -1.0625 4.5625 C-1 1 -1 1 0 0 Z " fill="#4E4B4D" transform="translate(440,214)"/>
<path d="M0 0 C0 1.32 0 2.64 0 4 C-2.31 3.67 -4.62 3.34 -7 3 C-7 2.01 -7 1.02 -7 0 C-3.86650268 -1.04449911 -3.01031744 -0.93423645 0 0 Z " fill="#0B6AEF" transform="translate(487,204)"/>
<path d="M0 0 C0.33 0 0.66 0 1 0 C0.25 6.625 0.25 6.625 -2 10 C-5.125 10.1875 -5.125 10.1875 -8 10 C-8.33 9.01 -8.66 8.02 -9 7 C-5.535 6.505 -5.535 6.505 -2 6 C-1.34 4.02 -0.68 2.04 0 0 Z " fill="#21100C" transform="translate(82,276)"/>
<path d="M0 0 C1.0625 1.8125 1.0625 1.8125 2 4 C0.66667905 7.99996286 -1.4957827 8.83782337 -5 11 C-5.66 10.67 -6.32 10.34 -7 10 C-6.67 8.68 -6.34 7.36 -6 6 C-4.35 5.67 -2.7 5.34 -1 5 C-0.67 3.35 -0.34 1.7 0 0 Z " fill="#271510" transform="translate(26,273)"/>
<path d="M0 0 C1.65 0 3.3 0 5 0 C4.01 0.33 3.02 0.66 2 1 C2 2.65 2 4.3 2 6 C2.99 6.33 3.98 6.66 5 7 C4.01 7 3.02 7 2 7 C2 8.32 2 9.64 2 11 C1.34 11 0.68 11 0 11 C0 7.37 0 3.74 0 0 Z " fill="#8B6D60" transform="translate(165,272)"/>
<path d="M0 0 C2.50037734 2.17424117 3.43628586 3.73045798 4 7 C4.66 7 5.32 7 6 7 C6.33 6.34 6.66 5.68 7 5 C7 6.32 7 7.64 7 9 C4.03 8.505 4.03 8.505 1 8 C0.67 5.36 0.34 2.72 0 0 Z " fill="#051334" transform="translate(460,245)"/>
<path d="M0 0 C2.475 0.495 2.475 0.495 5 1 C5 1.66 5 2.32 5 3 C7.64 3 10.28 3 13 3 C13.33 3.99 13.66 4.98 14 6 C9.14580734 5.40802528 5.35759324 4.13607512 1 2 C0.67 1.34 0.34 0.68 0 0 Z " fill="#01143F" transform="translate(472,225)"/>
<path d="M0 0 C1.8844171 3.7688342 2.33429462 5.68012475 2.625 9.75 C2.69976562 10.73484375 2.77453125 11.7196875 2.8515625 12.734375 C2.92503906 13.85585937 2.92503906 13.85585937 3 15 C2.67 13.68 2.34 12.36 2 11 C1.01 11 0.02 11 -1 11 C-0.67 7.37 -0.34 3.74 0 0 Z " fill="#5C5758" transform="translate(494,193)"/>
<path d="M0 0 C0 0.66 0 1.32 0 2 C-0.99 2.33 -1.98 2.66 -3 3 C-3.33 3.66 -3.66 4.32 -4 5 C-8.29 4.67 -12.58 4.34 -17 4 C-17 3.67 -17 3.34 -17 3 C-16.08476562 2.86722656 -15.16953125 2.73445313 -14.2265625 2.59765625 C-13.03804688 2.42105469 -11.84953125 2.24445313 -10.625 2.0625 C-9.44164062 1.88847656 -8.25828125 1.71445312 -7.0390625 1.53515625 C-4.47352859 1.08338485 -2.5415907 0 0 0 Z " fill="#5F5D5E" transform="translate(381,263)"/>
<path d="M0 0 C0.66 0.33 1.32 0.66 2 1 C0.66749209 4.5875213 -0.830717 7.8364623 -3 11 C-3.66 11 -4.32 11 -5 11 C-3.77472971 6.94718288 -2.30119506 3.55639236 0 0 Z " fill="#C0BCBD" transform="translate(251,242)"/>
<path d="M0 0 C0.99 0.33 1.98 0.66 3 1 C2.0409375 2.1446875 2.0409375 2.1446875 1.0625 3.3125 C-1.14232781 5.88246713 -1.14232781 5.88246713 -2 9 C-2.99 9 -3.98 9 -5 9 C-4.67 7.35 -4.34 5.7 -4 4 C-3.01 4 -2.02 4 -1 4 C-0.67 2.68 -0.34 1.36 0 0 Z " fill="#01071F" transform="translate(449,206)"/>
<path d="M0 0 C0.33 0 0.66 0 1 0 C2.12862175 5.36095333 2.09688221 10.55306686 2 16 C1.67 16 1.34 16 1 16 C1 13.36 1 10.72 1 8 C0.34 8 -0.32 8 -1 8 C-1.04241723 5.66705225 -1.04092937 3.33297433 -1 1 C-0.67 0.67 -0.34 0.34 0 0 Z " fill="#D1CCCE" transform="translate(186,208)"/>
<path d="M0 0 C0 0.66 0 1.32 0 2 C-1.65 2.66 -3.3 3.32 -5 4 C-5 3.34 -5 2.68 -5 2 C-6.65 2 -8.3 2 -10 2 C-9.67 1.34 -9.34 0.68 -9 0 C-2.57142857 -1.28571429 -2.57142857 -1.28571429 0 0 Z " fill="#1C0C09" transform="translate(246,283)"/>
<path d="M0 0 C1.485 0.99 1.485 0.99 3 2 C3 2.99 3 3.98 3 5 C3.66 4.67 4.32 4.34 5 4 C5 5.98 5 7.96 5 10 C4.34 9.34 3.68 8.68 3 8 C2.01 8 1.02 8 0 8 C0 5.36 0 2.72 0 0 Z " fill="#DCCED5" transform="translate(190,245)"/>
<path d="M0 0 C0 0.66 0 1.32 0 2 C-0.99 2 -1.98 2 -3 2 C-3 3.98 -3 5.96 -3 8 C-7.875 6.25 -7.875 6.25 -9 4 C-7.35 3.67 -5.7 3.34 -4 3 C-4 2.34 -4 1.68 -4 1 C-2 0 -2 0 0 0 Z " fill="#0C4EA0" transform="translate(456,227)"/>
<path d="M0 0 C0.33 0.66 0.66 1.32 1 2 C-0.1875 5.0625 -0.1875 5.0625 -2 8 C-4.1875 8.875 -4.1875 8.875 -6 9 C-5 7 -4 5 -3 3 C-2.34 3 -1.68 3 -1 3 C-0.67 2.01 -0.34 1.02 0 0 Z " fill="#1658BF" transform="translate(462,219)"/>
<path d="M0 0 C0.33 0.99 0.66 1.98 1 3 C-0.875 6.1875 -0.875 6.1875 -3 9 C-3.33 9 -3.66 9 -4 9 C-4.33 6.69 -4.66 4.38 -5 2 C-3.35 1.34 -1.7 0.68 0 0 Z " fill="#CFCDCF" transform="translate(270,218)"/>
<path d="M0 0 C1.32 0.33 2.64 0.66 4 1 C4 1.99 4 2.98 4 4 C4.66 4.33 5.32 4.66 6 5 C3.36 5 0.72 5 -2 5 C-1.34 4.67 -0.68 4.34 0 4 C0 2.68 0 1.36 0 0 Z " fill="#1B0604" transform="translate(258,279)"/>
<path d="M0 0 C1.65 0 3.3 0 5 0 C5 1.98 5 3.96 5 6 C3.35 6 1.7 6 0 6 C0 4.02 0 2.04 0 0 Z " fill="#331914" transform="translate(221,273)"/>
<path d="M0 0 C1.32 0 2.64 0 4 0 C3.6875 3.375 3.6875 3.375 3 7 C2.01 7.66 1.02 8.32 0 9 C-0.33 7.02 -0.66 5.04 -1 3 C-0.01 2.67 0.98 2.34 2 2 C1.34 1.34 0.68 0.68 0 0 Z " fill="#130302" transform="translate(417,271)"/>
<path d="M0 0 C2.4375 0.6875 2.4375 0.6875 5 2 C5.8125 4.625 5.8125 4.625 6 7 C5.38125 6.67 4.7625 6.34 4.125 6 C2.08981656 4.85806765 2.08981656 4.85806765 0 5 C0 3.35 0 1.7 0 0 Z " fill="#010824" transform="translate(434,204)"/>
<path d="M0 0 C3.3 0 6.6 0 10 0 C9.67 1.98 9.34 3.96 9 6 C2.25 2.25 2.25 2.25 0 0 Z " fill="#434043" transform="translate(379,233)"/>
<path d="M0 0 C1.98 0.66 3.96 1.32 6 2 C6.33 3.65 6.66 5.3 7 7 C5.68 6.34 4.36 5.68 3 5 C3 4.01 3 3.02 3 2 C2.01 2 1.02 2 0 2 C0 1.34 0 0.68 0 0 Z " fill="#000C32" transform="translate(476,207)"/>
<path d="M0 0 C1.32 0 2.64 0 4 0 C4 0.66 4 1.32 4 2 C4.99 1.67 5.98 1.34 7 1 C7.66 2.65 8.32 4.3 9 6 C8.01 6 7.02 6 6 6 C6 5.34 6 4.68 6 4 C5.38125 3.71125 4.7625 3.4225 4.125 3.125 C2 2 2 2 0 0 Z " fill="#4F4B4C" transform="translate(430,207)"/>
<path d="M0 0 C2.31 0.66 4.62 1.32 7 2 C7 2.66 7 3.32 7 4 C3.535 5.485 3.535 5.485 0 7 C0 6.34 0 5.68 0 5 C0.66 5 1.32 5 2 5 C2 4.01 2 3.02 2 2 C1.34 2 0.68 2 0 2 C0 1.34 0 0.68 0 0 Z " fill="#1C54AD" transform="translate(449,198)"/>
<path d="M0 0 C1.5 1.375 1.5 1.375 3 3 C3 3.66 3 4.32 3 5 C3.99 5 4.98 5 6 5 C6.33 6.98 6.66 8.96 7 11 C3.17330957 7.57611908 1.27721526 4.99275057 0 0 Z " fill="#6F6A6C" transform="translate(264,239)"/>
<path d="M0 0 C0.33 0.66 0.66 1.32 1 2 C0.01 2 -0.98 2 -2 2 C-2 2.66 -2 3.32 -2 4 C-3.32 4.33 -4.64 4.66 -6 5 C-6.33 3.68 -6.66 2.36 -7 1 C-3.535 0.505 -3.535 0.505 0 0 Z " fill="#201313" transform="translate(62,282)"/>
<path d="M0 0 C1.32 0.99 2.64 1.98 4 3 C3.67 3.99 3.34 4.98 3 6 C1.68 5.67 0.36 5.34 -1 5 C-0.67 3.35 -0.34 1.7 0 0 Z " fill="#0E0100" transform="translate(239,274)"/>
<path d="M0 0 C2.475 0.495 2.475 0.495 5 1 C5 1.99 5 2.98 5 4 C3.35 4 1.7 4 0 4 C0 2.68 0 1.36 0 0 Z " fill="#371912" transform="translate(20,273)"/>
<path d="M0 0 C0.33 0 0.66 0 1 0 C2.125 7.625 2.125 7.625 1 11 C0.34 10.67 -0.32 10.34 -1 10 C-0.67 6.7 -0.34 3.4 0 0 Z " fill="#241510" transform="translate(346,273)"/>
<path d="M0 0 C1.65 0 3.3 0 5 0 C4.01 0.33 3.02 0.66 2 1 C2.7763932 4.0745356 2.7763932 4.0745356 5 6 C3.35 5.67 1.7 5.34 0 5 C0 3.35 0 1.7 0 0 Z " fill="#7F605C" transform="translate(377,272)"/>
<path d="M0 0 C1.32 0.33 2.64 0.66 4 1 C3.67 2.32 3.34 3.64 3 5 C2.01 5 1.02 5 0 5 C0 3.35 0 1.7 0 0 Z " fill="#36140C" transform="translate(322,273)"/>
<path d="M0 0 C1.32 0 2.64 0 4 0 C4 1.32 4 2.64 4 4 C2.68 4.33 1.36 4.66 0 5 C0 3.35 0 1.7 0 0 Z " fill="#110200" transform="translate(76,275)"/>
<path d="M0 0 C2.475 0.495 2.475 0.495 5 1 C4.67 1.99 4.34 2.98 4 4 C2.68 4 1.36 4 0 4 C0 2.68 0 1.36 0 0 Z " fill="#3E1A11" transform="translate(202,273)"/>
<path d="M0 0 C0.33 0.66 0.66 1.32 1 2 C-1.1385485 4.1385485 -2.13275314 4.42655063 -5 5 C-5 3.68 -5 2.36 -5 1 C-3.35 0.67 -1.7 0.34 0 0 Z " fill="#2B160F" transform="translate(62,272)"/>
<path d="M0 0 C2.475 0.495 2.475 0.495 5 1 C4.67 1.99 4.34 2.98 4 4 C2.68 4 1.36 4 0 4 C0 2.68 0 1.36 0 0 Z " fill="#3E1D13" transform="translate(38,273)"/>
<path d="M0 0 C0.99 0 1.98 0 3 0 C3.33 1.32 3.66 2.64 4 4 C2.02 4.33 0.04 4.66 -2 5 C-1.34 4.67 -0.68 4.34 0 4 C0 2.68 0 1.36 0 0 Z " fill="#1E0B06" transform="translate(39,279)"/>
<path d="M0 0 C1.32 0.66 2.64 1.32 4 2 C4 2.99 4 3.98 4 5 C3.01 4.67 2.02 4.34 1 4 C0.01 4.33 -0.98 4.66 -2 5 C-1.34 3.35 -0.68 1.7 0 0 Z " fill="#434142" transform="translate(253,243)"/>
<path d="M0 0 C2.97 0.495 2.97 0.495 6 1 C6 1.66 6 2.32 6 3 C4.02 3.66 2.04 4.32 0 5 C0 3.35 0 1.7 0 0 Z " fill="#1E4587" transform="translate(480,230)"/>
<path d="M0 0 C0.99 0 1.98 0 3 0 C3.33 2.31 3.66 4.62 4 7 C2 5.75 2 5.75 0 4 C0 2.68 0 1.36 0 0 Z " fill="#1264DB" transform="translate(463,215)"/>
<path d="M0 0 C0.66 0.33 1.32 0.66 2 1 C1.2884375 1.8353125 1.2884375 1.8353125 0.5625 2.6875 C-1.12395996 5.18346074 -1.58953107 7.0446237 -2 10 C-2.33 10 -2.66 10 -3 10 C-3.36923077 3.47692308 -3.36923077 3.47692308 -1.5 1.0625 C-1.005 0.711875 -0.51 0.36125 0 0 Z " fill="#444444" transform="translate(360,215)"/>
<path d="M0 0 C1.32 0 2.64 0 4 0 C4 1.98 4 3.96 4 6 C3.01 5.01 2.02 4.02 1 3 C0.01 3.495 0.01 3.495 -1 4 C-0.67 2.68 -0.34 1.36 0 0 Z " fill="#020F28" transform="translate(442,186)"/>
</svg>
